Mebo.glyphspackage
{
color = 5;
glyphname = A;
kernLeft = A;
kernRight = A;
layers = (
{
layerId = m01;
shapes = (
{
closed = 1;
nodes = (
(203,0,ls),
(246,0,o),
(251,17,o),
(251,32,cs),
(251,66,o),
(188,103,o),
(188,179,cs),
(188,265,o),
(268,305,o),
(416,305,cs),
(470,305,o),
(501,280,o),
(501,232,cs),
(501,121,o),
(427,84,o),
(427,36,cs),
(427,13,o),
(440,0,o),
(467,0,cs),
(562,0,ls),
(619,0,o),
(642,40,o),
(642,232,cs),
(642,575,o),
(472,816,o),
(361,816,cs),
(255,816,o),
(32,554,o),
(32,212,cs),
(32,23,o),
(53,0,o),
(106,0,cs)
);
},
{
closed = 1;
nodes = (
(223,410,o),
(209,426,o),
(209,446,cs),
(209,508,o),
(303,652,o),
(365,652,cs),
(411,652,o),
(473,530,o),
(473,473,cs),
(473,450,o),
(465,430,o),
(435,430,cs),
(413,430,o),
(393,431,o),
(341,424,cs),
(310,420,o),
(277,410,o),
(251,410,cs)
);
}
);
width = 674;
},
{
associatedMasterId = m01;
layerId = "4AFC0452-AA80-459B-97AA-D80E6DF2AD21";
name = "Jun 17, 23 at 16:53";
shapes = (
{
closed = 1;
nodes = (
(203,0,ls),
(246,0,o),
(251,17,o),
(251,32,cs),
(251,66,o),
(188,103,o),
(188,179,cs),
(188,265,o),
(268,305,o),
(416,305,cs),
(470,305,o),
(501,280,o),
(501,232,cs),
(501,121,o),
(427,77,o),
(427,29,cs),
(427,9,o),
(439,0,o),
(464,0,cs),
(578,0,ls),
(619,0,o),
(642,40,o),
(642,232,cs),
(642,367,o),
(618,556,o),
(504,704,cs),
(455,768,o),
(411,816,o),
(361,816,cs),
(313,816,o),
(216.095,731.231,o),
(136,605.5,cs),
(78.667,515.5,o),
(32,368,o),
(32,212,cs),
(32,23,o),
(53,0,o),
(106,0,cs)
);
},
{
closed = 1;
nodes = (
(219,410,o),
(209,418,o),
(209,438,cs),
(209,500,o),
(313,652,o),
(365,652,cs),
(404,652,o),
(473,530,o),
(473,486,cs),
(473,456,o),
(447,444,o),
(416,441,cs),
(353,434,o),
(288,410,o),
(235,410,cs)
);
}
);
visible = 1;
width = 674;
}
);
unicode = 65;
}
{
color = 5;
glyphname = B;
kernLeft = B;
kernRight = B;
layers = (
{
layerId = m01;
shapes = (
{
closed = 1;
nodes = (
(368,0,ls),
(547,0,o),
(607,81,o),
(607,186,cs),
(607,352,o),
(455,419,o),
(455,466,cs),
(455,511,o),
(562,539,o),
(562,659,cs),
(562,753,o),
(496,800,o),
(365,800,cs),
(200,800,ls),
(107,800,o),
(48,770,o),
(48,343,cs),
(48,34,o),
(81,0,o),
(166,0,cs)
);
},
{
closed = 1;
nodes = (
(219,124,o),
(195,162,o),
(195,239,cs),
(195,298,o),
(203,317,o),
(255,351,cs),
(284,370,o),
(316,387,o),
(341,387,cs),
(383,387,o),
(451,303,o),
(451,226,cs),
(451,157,o),
(390,124,o),
(311,124,cs)
);
},
{
closed = 1;
nodes = (
(197,452,o),
(189,462,o),
(189,496,cs),
(189,641,o),
(229,686,o),
(328,686,cs),
(379,686,o),
(405,667,o),
(405,628,cs),
(405,556,o),
(268,452,o),
(219,452,cs)
);
}
);
width = 639;
},
{
associatedMasterId = m01;
layerId = "19962CF8-C17A-4A12-9971-7CEDFAFCE11B";
name = "Jun 18, 23 at 12:25";
shapes = (
{
closed = 1;
nodes = (
(392,0,ls),
(538.667,0,o),
(607,80.667,o),
(607,186,cs),
(607,280,o),
(558,344,o),
(506,397.5,cs),
(463,441,o),
(455,451,o),
(455,466,cs),
(455,479,o),
(462,490,o),
(506.5,533.5,cs),
(536,563,o),
(562,611,o),
(562,659,cs),
(562,753,o),
(496,800,o),
(365,800,cs),
(132,800,ls),
(83,800,o),
(48,770,o),
(48,343,cs),
(48,34,o),
(81,0,o),
(126,0,cs)
);
},
{
closed = 1;
nodes = (
(219,124,o),
(195,162,o),
(195,288,cs),
(195,309,o),
(203,321,o),
(236,340,cs),
(291,372,o),
(327,390,o),
(340,390,cs),
(382,390,o),
(451,298,o),
(451,226,cs),
(451,157,o),
(390,124,o),
(311,124,cs)
);
},
{
closed = 1;
nodes = (
(197,452,o),
(189,462,o),
(189,496,cs),
(189,641,o),
(229,686,o),
(328,686,cs),
(379,686,o),
(405,667,o),
(405,628,cs),
(405,578,o),
(371,544,o),
(267,471,cs),
(246,456,o),
(228,452,o),
(214,452,cs)
);
}
);
visible = 1;
width = 639;
}
);
unicode = 66;
}
{
color = 5;
glyphname = C;
kernLeft = C;
kernRight = C;
layers = (
{
layerId = m01;
shapes = (
{
closed = 1;
nodes = (
(494,-16,o),
(607,72,o),
(607,236,cs),
(607,270,o),
(597,291,o),
(573,291,cs),
(547,291,o),
(539,270,o),
(509,227,cs),
(479,184,o),
(441,162,o),
(390,162,cs),
(289,162,o),
(180,250,o),
(180,416,cs),
(180,550,o),
(250,695,o),
(380,695,cs),
(415,695,o),
(444,673,o),
(448,643,cs),
(453,605,o),
(477,580,o),
(515,580,cs),
(564,580,o),
(597,612,o),
(597,667,cs),
(597,778,o),
(471,817,o),
(376,817,cs),
(144,817,o),
(24,603,o),
(24,379,cs),
(24,170,o),
(136,-16,o),
(345,-16,cs)
);
}
);
width = 623;
},
{
associatedMasterId = m01;
layerId = "A8F4CE03-129B-4451-BFB8-0A6CB5BA1828";
name = "Jun 18, 23 at 12:30";
shapes = (
{
closed = 1;
nodes = (
(486,-16,o),
(607,72,o),
(607,237,cs),
(607,275,o),
(584,291,o),
(564,291,cs),
(541,291,o),
(526,270,o),
(508,227,cs),
(491,186,o),
(448.667,157,o),
(390,157,cs),
(289,157,o),
(180,250,o),
(180,416,cs),
(180,550,o),
(250,695,o),
(381,695,cs),
(431,695,o),
(453,655,o),
(459,632,cs),
(466,607,o),
(491,590,o),
(521,590,cs),
(551,590,o),
(590,612,o),
(590,667,cs),
(590,778,o),
(471,817,o),
(376,817,cs),
(152,817,o),
(24,603,o),
(24,379,cs),
(24,170,o),
(136,-16,o),
(345,-16,cs)
);
}
);
visible = 1;
width = 623;
}
);
unicode = 67;
}
{
color = 5;
glyphname = D;
kernLeft = D;
kernRight = D;
layers = (
{
layerId = m01;
shapes = (
{
closed = 1;
nodes = (
(343,0,ls),
(521,0,o),
(622,118,o),
(622,307,cs),
(622,565,o),
(501,800,o),
(267,800,cs),
(189,800,ls),
(77,800,o),
(48,777,o),
(48,344,cs),
(48,35,o),
(75,0,o),
(205,0,cs)
);
},
{
closed = 1;
nodes = (
(258,124,o),
(197,155,o),
(197,366,cs),
(197,635,o),
(220,677,o),
(272,677,cs),
(355,677,o),
(458,525,o),
(458,346,cs),
(458,222,o),
(413,124,o),
(317,124,cs)
);
}
);
width = 646;
},
{
associatedMasterId = m01;
layerId = "0F71B4D6-D414-4FB4-A9E1-952D1CB1FF02";
name = "Jun 18, 23 at 12:50";
shapes = (
{
closed = 1;
nodes = (
(343,0,ls),
(521,0,o),
(622,118,o),
(622,307,cs),
(622,565,o),
(485,800,o),
(267,800,cs),
(133,800,ls),
(75,800,o),
(48,777,o),
(48,344,cs),
(48,35,o),
(75,0,o),
(134,0,cs)
);
},
{
closed = 1;
nodes = (
(234,124,o),
(197,195,o),
(197,366,cs),
(197,619,o),
(220,686,o),
(280,686,cs),
(379,686,o),
(466,525,o),
(466,346,cs),
(466,222,o),
(413,124,o),
(317,124,cs)
);
}
);
visible = 1;
width = 646;
}
);
unicode = 68;
}
{
color = 5;
glyphname = E;
kernLeft = E;
kernRight = E;
layers = (
{
layerId = m01;
shapes = (
{
closed = 1;
nodes = (
(553,0,o),
(566,20,o),
(566,46,cs),
(566,74,o),
(518,187,o),
(480,187,cs),
(434,187,o),
(427,124,o),
(310,124,cs),
(231,124,o),
(188,177,o),
(188,257,cs),
(188,338,o),
(249,385,o),
(304,385,cs),
(352,385,o),
(365,367,o),
(396,366,cs),
(435,365,o),
(458,459,o),
(458,500,cs),
(458,530,o),
(436,544,o),
(413,544,cs),
(339,544,o),
(281,500,o),
(246,500,cs),
(214,500,o),
(204,517,o),
(204,554,cs),
(204,639,o),
(266,686,o),
(341,686,cs),
(413,686,o),
(441,641,o),
(481,641,cs),
(515,641,o),
(555,727,o),
(555,761,cs),
(555,784,o),
(540,800,o),
(493,800,cs),
(193,800,ls),
(129,800,o),
(98,770,o),
(69,500,cs),
(57,386,o),
(50,262,o),
(48,116,cs),
(47,22,o),
(74,0,o),
(151,0,cs),
(518,0,ls)
);
}
);
width = 598;
},
{
associatedMasterId = m01;
layerId = "1C52F961-00A3-4C3B-9566-0E033A4063CE";
name = "Jun 18, 23 at 13:07";
shapes = (
{
closed = 1;
nodes = (
(556,0,o),
(566,7,o),
(566,25,cs),
(566,53,o),
(510,187,o),
(480,187,cs),
(446,187,o),
(400,124,o),
(310,124,cs),
(231,124,o),
(188,177,o),
(188,257,cs),
(188,338,o),
(249,385,o),
(304,385,cs),
(346,385,o),
(359,367,o),
(384,366,cs),
(419,365,o),
(458,487,o),
(458,512,cs),
(458,535,o),
(436,544,o),
(415,544,cs),
(339,544,o),
(281,500,o),
(234,500,cs),
(214,500,o),
(204,517,o),
(204,554,cs),
(204,639,o),
(266,686,o),
(341,686,cs),
(417,686,o),
(445,641,o),
(481,641,cs),
(509,641,o),
(555,743,o),
(555,770,cs),
(555,792,o),
(540,800,o),
(509,800,cs),
(165,800,ls),
(117,800,o),
(97,770,o),
(69,513,cs),
(57,399,o),
(48,262,o),
(48,116,cs),
(48,24,o),
(59,0,o),
(111,0,cs),
(531,0,ls)
);
}
);
visible = 1;
width = 598;
}
);
unicode = 69;
}
{
color = 5;
glyphname = F;
kernLeft = I;
kernRight = F;
layers = (
{
layerId = m01;
shapes = (
{
closed = 1;
nodes = (
(203,0,ls),
(245,0,o),
(263,11,o),
(263,40,cs),
(263,75,o),
(209,137,o),
(209,238,cs),
(209,319,o),
(262,367,o),
(317,367,cs),
(352,367,o),
(368,350,o),
(404,350,cs),
(447,350,o),
(464,434,o),
(464,476,cs),
(464,509,o),
(450,525,o),
(411,525,cs),
(350,525,o),
(316,481,o),
(256,481,cs),
(214,481,o),
(205,495,o),
(205,557,cs),
(205,642,o),
(267.333,689,o),
(331,689,cs),
(413,689,o),
(423,644,o),
(466,644,cs),
(510,644,o),
(556,735,o),
(556,766,cs),
(556,786,o),
(539,800,o),
(492,800,cs),
(183,800,ls),
(79,800,o),
(48,771,o),
(48,344,cs),
(48,19,o),
(73,0,o),
(146,0,cs)
);
}
);
width = 600;
},
{
associatedMasterId = m01;
layerId = "E7A238E2-1E80-4C8B-9547-ED9FA13F5834";
name = "Jun 18, 23 at 14:32";
shapes = (
{
closed = 1;
nodes = (
(203,0,ls),
(229,0,o),
(247,15,o),
(247,41,cs),
(247,77,o),
(209,135,o),
(209,238,cs),
(209,319,o),
(262,367,o),
(317,367,cs),
(363,367,o),
(376,350,o),
(410,350,cs),
(443,350,o),
(464,470,o),
(464,497,cs),
(464,517,o),
(450,525,o),
(421,525,cs),
(318,525,o),
(292,481,o),
(236,481,cs),
(214,481,o),
(205,495,o),
(205,557,cs),
(205,642,o),
(267.333,689,o),
(342,689,cs),
(420,689,o),
(438,644,o),
(466,644,cs),
(502,644,o),
(556,745,o),
(556,770,cs),
(556,789,o),
(541,800,o),
(510,800,cs),
(143,800,ls),
(87,800,o),
(48,771,o),
(48,344,cs),
(48,35,o),
(65,0,o),
(114,0,cs)
);
}
);
visible = 1;
width = 600;
}
);
unicode = 70;
}
{
color = 5;
glyphname = G;
kernLeft = G;
kernRight = G;
layers = (
{
layerId = m01;
shapes = (
{
closed = 1;
nodes = (
(483,-16,o),
(604,53,o),
(604,200,cs),
(604,369,o),
(585,428,o),
(535,428,cs),
(458,428,o),
(369,393,o),
(369,350,cs),
(369,317,o),
(406,303,o),
(430,290,cs),
(450,279,o),
(461,265,o),
(461,234,cs),
(461,187,o),
(420,157,o),
(352,157,cs),
(232,157,o),
(180,229,o),
(180,415,cs),
(180,534,o),
(238,695,o),
(381,695,cs),
(427,695,o),
(446,661,o),
(449,638,cs),
(453,607,o),
(475,580,o),
(519,580,cs),
(565,580,o),
(597,614,o),
(597,663,cs),
(597,777,o),
(477,816,o),
(381,816,cs),
(140,816,o),
(24,604,o),
(24,379,cs),
(24,148,o),
(118,-16,o),
(359,-16,cs)
);
}
);
width = 636;
},
{
associatedMasterId = m01;
layerId = "3DCACE2A-BA42-4CB6-98AF-D356DF1209D8";
name = "Jun 18, 23 at 14:39";
shapes = (
{
closed = 1;
nodes = (
(494,-16,o),
(607,72,o),
(607,236,cs),
(607,270,o),
(597,291,o),
(573,291,cs),
(547,291,o),
(539,270,o),
(509,227,cs),
(479,184,o),
(441,162,o),
(390,162,cs),
(289,162,o),
(180,250,o),
(180,416,cs),
(180,550,o),
(250,695,o),
(380,695,cs),
(415,695,o),
(444,673,o),
(448,643,cs),
(453,605,o),
(477,580,o),
(515,580,cs),
(564,580,o),
(597,612,o),
(597,667,cs),
(597,778,o),
(471,817,o),
(376,817,cs),
(144,817,o),
(24,603,o),
(24,379,cs),
(24,170,o),
(136,-16,o),
(345,-16,cs)
);
}
);
width = 636;
},
{
associatedMasterId = m01;
layerId = "C7401BCC-19F8-4912-B36F-C381971CC067";
name = "Jun 18, 23 at 14:39";
shapes = (
{
closed = 1;
nodes = (
(483,-16,o),
(604,37,o),
(604,200,cs),
(604,369,o),
(561,428,o),
(535,428,cs),
(498,428,o),
(385,393,o),
(385,354,cs),
(385,331,o),
(404,322,o),
(423,310,cs),
(442,299,o),
(461,286,o),
(461,250,cs),
(461,187.333,o),
(405,157,o),
(337,157,cs),
(233,157,o),
(180,229,o),
(180,373,cs),
(180,510,o),
(235,680,o),
(386,680,cs),
(440.667,680,o),
(462,658,o),
(465,635,cs),
(469,604,o),
(475,590,o),
(495,590,cs),
(555,590,o),
(594,618,o),
(594,677,cs),
(594,777,o),
(477,816,o),
(381,816,cs),
(148,816,o),
(24,580,o),
(24,355,cs),
(24,132,o),
(142,-16,o),
(359,-16,cs)
);
}
);
visible = 1;
width = 636;
}
);
unicode = 71;
}
{
color = 5;
glyphname = H;
layers = (
{
layerId = m01;
shapes = (
{
closed = 1;
nodes = (
(124,0,o),
(178,0,o),
(201,0,cs),
(236,0,o),
(248,12,o),
(248,35,cs),
(248,71,o),
(205,120,o),
(205,233,cs),
(205,333,o),
(296.667,388,o),
(406,388,cs),
(471.333,388,o),
(497,364,o),
(497,300,cs),
(497,169,o),
(432,83,o),
(432,35,cs),
(432,12,o),
(446,0,o),
(484,0,cs),
(507,0,o),
(552,0,o),
(575,0,cs),
(624,0,o),
(638,24,o),
(638,334,cs),
(638,758,o),
(580,800,o),
(522,800,cs),
(451,800,ls),
(412,800,o),
(393,791,o),
(393,764,cs),
(393,718,o),
(478,650,o),
(478,561,cs),
(478,538,o),
(466,511,o),
(431,511,cs),
(420,511,o),
(399,512,o),
(361,508,cs),
(305,503,o),
(276,489,o),
(250,489,cs),
(218,489,o),
(208,500,o),
(208,536,cs),
(208,646,o),
(274,732,o),
(274,764,cs),
(274,786,o),
(260,800,o),
(229,800,cs),
(154,800,ls),
(90,800,o),
(48,745,o),
(48,316,cs),
(48,21,o),
(58,0,o),
(105,0,cs)
);
}
);
width = 686;
},
{
associatedMasterId = m01;
layerId = "FB1053EF-253F-423B-BF6C-0F611DA59BEB";
name = "Jun 18, 23 at 14:47";
shapes = (
{
closed = 1;
nodes = (
(100,0,o),
(194,0,o),
(217,0,cs),
(237,0,o),
(248,-1,o),
(248,18,cs),
(248,38,o),
(205,120,o),
(205,233,cs),
(205,333,o),
(296.667,388,o),
(406,388,cs),
(471.333,388,o),
(497,364,o),
(497,300,cs),
(497,169,o),
(432,39,o),
(432,22,cs),
(432,5,o),
(444,0,o),
(468,0,cs),
(491,0,o),
(584,0,o),
(607,0,cs),
(628,0,o),
(638,24,o),
(638,316,cs),
(638,420,o),
(628.5,526.667,o),
(609.5,636,cs),
(590.5,745.333,o),
(572,800,o),
(554,800,cs),
(531,800,o),
(447,800,o),
(427,800,cs),
(404,800,o),
(393,796.667,o),
(393,780,cs),
(393,746.242,o),
(478,641.727,o),
(478,548,cs),
(478,529.596,o),
(468,518,o),
(453,516,cs),
(435,514,o),
(418,517,o),
(393,517,cs),
(325,517,o),
(250,489,o),
(232,489,cs),
(218,489,o),
(208,510.667,o),
(208,536,cs),
(208,652.666,o),
(274,766.503,o),
(274,784,cs),
(274,799,o),
(264,800,o),
(245,800,cs),
(224,800,o),
(137,800,o),
(114,800,cs),
(74,800,o),
(48,457,o),
(48,316,cs),
(48,5,o),
(60,0,o),
(81,0,cs)
);
}
);
visible = 1;
width = 686;
}
);
unicode = 72;
}
{
color = 5;
glyphname = I;
kernLeft = I;
kernRight = I;
layers = (
{
layerId = m01;
shapes = (
{
closed = 1;
nodes = (
(213,0,ls),
(249,0,o),
(264,16,o),
(264,41,cs),
(264,74,o),
(216,202,o),
(216,430,cs),
(216,608,o),
(267,714,o),
(267,761,cs),
(267,784,o),
(252,800,o),
(226,800,cs),
(156,800,ls),
(84,800,o),
(60,771,o),
(60,344,cs),
(60,51,o),
(84,0,o),
(150,0,cs)
);
}
);
width = 315;
},
{
associatedMasterId = m01;
layerId = "5FB08036-F29B-47FE-823B-9FC4A89D752A";
name = "Jun 18, 23 at 16:22";
shapes = (
{
closed = 1;
nodes = (
(242,0,ls),
(255,0,o),
(264,10,o),
(264,23,cs),
(264,46,o),
(216,202,o),
(216,430,cs),
(216,608,o),
(267,738,o),
(267,773,cs),
(267,792,o),
(252,800,o),
(227,800,cs),
(124,800,ls),
(92,800,o),
(60,755,o),
(60,344,cs),
(60,51,o),
(76,0,o),
(110,0,cs)
);
}
);
visible = 1;
width = 315;
}
);
unicode = 73;
}
{
color = 5;
glyphname = J;
layers = (
{
layerId = m01;
shapes = (
{
closed = 1;
nodes = (
(307,-16,o),
(338,157,o),
(338,310,cs),
(338,783,o),
(314,800,o),
(254,800,cs),
(181,800,ls),
(141,800,o),
(130,786,o),
(130,764,cs),
(130,714,o),
(183,655,o),
(183,364,cs),
(183,183,o),
(166,146,o),
(135,146,cs),
(121,146,o),
(111,159,o),
(104,172,cs),
(94,191,o),
(84,215,o),
(56,215,cs),
(16,215,o),
(0,153,o),
(0,112,cs),
(0,27,o),
(27,-16,o),
(144,-16,cs)
);
}
);
width = 386;
},
{
associatedMasterId = m01;
layerId = "912B874F-A5AC-41D3-BB70-3C62D4F040EA";
name = "Jun 18, 23 at 16:30";
shapes = (
{
closed = 1;
nodes = (
(307,-16,o),
(338,157,o),
(338,310,cs),
(338,583,o),
(329,701,o),
(317,760,cs),
(311,790,o),
(298,800,o),
(276,800,cs),
(173,800,ls),
(150,800,o),
(130,794,o),
(130,771,cs),
(130,738,o),
(183,655,o),
(183,364,cs),
(183,183,o),
(166,146,o),
(135,146,cs),
(113,146,o),
(97,157,o),
(86.5,181,cs),
(77,204,o),
(70,215,o),
(57,215,cs),
(32,215,o),
(0,129,o),
(0,64,cs),
(0,27,o),
(27,-16,o),
(144,-16,cs)
);
}
);
visible = 1;
width = 386;
}
);
unicode = 74;
}
{
color = 5;
glyphname = K;
layers = (
{
layerId = m01;
shapes = (
{
closed = 1;
nodes = (
(191,0,ls),
(224,0,o),
(241,10,o),
(241,35,cs),
(241,62,o),
(205,86,o),
(205,234,cs),
(205,290,o),
(280,361,o),
(311,361,cs),
(359,361,o),
(417,191,o),
(417,63,cs),
(417,14,o),
(435,0,o),
(477,0,cs),
(540,0,ls),
(583,0,o),
(597,13,o),
(597,60,cs),
(597,313,o),
(418,432,o),
(418,479,cs),
(418,527,o),
(576,645,o),
(576,762,cs),
(576,793,o),
(568,800,o),
(529,800,cs),
(473,800,ls),
(441,800,o),
(431,791,o),
(416,752,cs),
(367,621,o),
(255,449,o),
(220,449,cs),
(205,449,o),
(198,463,o),
(198,510,cs),
(198,658,o),
(249,730,o),
(249,764,cs),
(249,786,o),
(239,800,o),
(200,800,cs),
(159,800,ls),
(86,800,o),
(52,775,o),
(48,344,cs),
(45,51,o),
(53,0,o),
(130,0,cs)
);
}
);
width = 629;
},
{
associatedMasterId = m01;
layerId = "3A59B4B1-4926-41E5-AC6A-8D91E6E4C5A7";
name = "Jun 18, 23 at 18:40";
shapes = (
{
closed = 1;
nodes = (
(215,0,ls),
(232,0,o),
(241,10,o),
(241,24,cs),
(241,57,o),
(205,97,o),
(205,234,cs),
(205,285,o),
(283,361,o),
(311,361,cs),
(359,361,o),
(417,167,o),
(417,39,cs),
(417,10,o),
(426,0,o),
(444,0,cs),
(556,0,ls),
(587,0,o),
(597,14,o),
(597,44,cs),
(597,214,o),
(510,352,o),
(445,433,cs),
(433,448,o),
(417,467,o),
(417,479,cs),
(417,493,o),
(432,509,o),
(471,558,cs),
(536,639,o),
(576,725,o),
(576,778,cs),
(576,793,o),
(568,800,o),
(545,800,cs),
(457,800,ls),
(436,800,o),
(429,790,o),
(421,766,cs),
(375,629,o),
(317,560,o),
(266.5,495,cs),
(242,463,o),
(229,449,o),
(214,449,cs),
(203.333,449,o),
(198,463,o),
(198,510,cs),
(198,658,o),
(249,752,o),
(249,774,cs),
(249,792,o),
(239,800,o),
(216,800,cs),
(135,800,ls),
(94,800,o),
(52,759,o),
(48,344,cs),
(45,51,o),
(61,0,o),
(114,0,cs)
);
}
);
visible = 1;
width = 629;
}
);
unicode = 75;
}
{
color = 5;
glyphname = L;
layers = (
{
layerId = m01;
shapes = (
{
closed = 1;
nodes = (
(458,0,ls),
(506,0,o),
(523,15,o),
(523,54,cs),
(523,90,o),
(508,206,o),
(458,206,cs),
(413,206,o),
(386,124,o),
(300,124,cs),
(237,124,o),
(191,168,o),
(191,289,cs),
(191,558,o),
(301,718,o),
(301,765,cs),
(301,781,o),
(290,800,o),
(256,800,cs),
(171,800,ls),
(120,800,o),
(108,776,o),
(89,684,cs),
(55,518,o),
(48,380,o),
(48,260,cs),
(48,25,o),
(62,0,o),
(153,0,cs)
);
}
);
width = 531;
},
{
associatedMasterId = m01;
layerId = "D930F28F-3DEB-4D29-87CD-33BC39145B68";
name = "Jun 18, 23 at 18:55";
shapes = (
{
closed = 1;
nodes = (
(480,0,ls),
(505,0,o),
(523,17,o),
(523,38,cs),
(523,76,o),
(500,206,o),
(458,206,cs),
(424,206,o),
(397,124,o),
(300,124,cs),
(237,124,o),
(191,168,o),
(191,289,cs),
(191,558,o),
(301,750,o),
(301,774,cs),
(301,789,o),
(290,800,o),
(272,800,cs),
(155,800,ls),
(133,800,o),
(114,789,o),
(97,700,cs),
(71,564,o),
(48,327,o),
(48,228,cs),
(48,25,o),
(62,0,o),
(105,0,cs)
);
}
);
visible = 1;
width = 531;
}
);
unicode = 76;
}
{
color = 5;
glyphname = M;
layers = (
{
layerId = m01;
shapes = (
{
closed = 1;
nodes = (
(193,0,ls),
(244,0,o),
(258,22,o),
(258,53,cs),
(258,97,o),
(195,191,o),
(195,454,cs),
(195,552,o),
(204,590,o),
(224,590,cs),
(248,590,o),
(308,484,o),
(351,339,cs),
(359,311,o),
(376,295,o),
(406,295,cs),
(434,295,o),
(447,310,o),
(458,339,cs),
(512,484,o),
(572,590,o),
(596,590,cs),
(619,590,o),
(628,552,o),
(628,454,cs),
(628,194,o),
(577,97,o),
(577,44,cs),
(577,18,o),
(592,0,o),
(630,0,cs),
(705,0,ls),
(743,0,o),
(770,18,o),
(778,73,cs),
(785,118,o),
(788,210.667,o),
(788,344,cs),
(788,522,o),
(769,659,o),
(762,702,cs),
(751,765,o),
(736,800,o),
(680,800,cs),
(646,800,ls),
(593,800,o),
(549,773,o),
(454,600,cs),
(443,580,o),
(433,563,o),
(417,563,cs),
(402,563,o),
(392,580,o),
(383,597,cs),
(294,773,o),
(258,800,o),
(197,800,cs),
(153,800,ls),
(95,800,o),
(76,764,o),
(69,711,cs),
(59,627,o),
(48,481.333,o),
(48,344,cs),
(48,32,o),
(66,0,o),
(132,0,cs)
);
}
);
width = 836;
},
{
associatedMasterId = m01;
layerId = "9925FA5C-DC89-47CF-AB91-CC5A01F93910";
name = "Jun 18, 23 at 19:51";
shapes = (
{
closed = 1;
nodes = (
(193,0,ls),
(228,0,o),
(242,14,o),
(242,43,cs),
(242,71,o),
(179,191,o),
(179,454,cs),
(179,552,o),
(188,590,o),
(212,590,cs),
(243,590,o),
(285,500,o),
(332,383,cs),
(353,330,o),
(380,311,o),
(411,311,cs),
(438,311,o),
(458,340,o),
(477,383,cs),
(546,536,o),
(570,590,o),
(599,590,cs),
(623,590,o),
(632,552,o),
(632,454,cs),
(632,194,o),
(577,86,o),
(577,42,cs),
(577,16,o),
(592,0,o),
(622,0,cs),
(705,0,ls),
(743,0,o),
(770,18,o),
(778,73,cs),
(785,118,o),
(788,210.667,o),
(788,344,cs),
(788,522,o),
(769,659,o),
(762,700,cs),
(751,765,o),
(728,800,o),
(692,800,cs),
(643,800,ls),
(598,800,o),
(564,789,o),
(479,640,cs),
(455,598,o),
(437,579,o),
(420,579,cs),
(401,579,o),
(392,596,o),
(369,640,cs),
(309,754,o),
(266,800,o),
(205,800,cs),
(142,800,ls),
(100,800,o),
(76,764,o),
(68,700,cs),
(59,627,o),
(48,481.333,o),
(48,344,cs),
(48,40,o),
(81,0,o),
(120,0,cs)
);
}
);
visible = 1;
width = 836;
}
);
unicode = 77;
}
{
color = 5;
glyphname = N;
layers = (
{
layerId = m01;
shapes = (
{
closed = 1;
nodes = (
(180,0,ls),
(206,0,o),
(218,12,o),
(218,42,cs),
(218,91,o),
(178,161,o),
(178,481.5,cs),
(178,535,o),
(183,550,o),
(204,550,cs),
(231,550,o),
(299,426,o),
(327,364,cs),
(383,241,o),
(403,186,o),
(443,42,cs),
(452,10,o),
(468,0,o),
(492,0,cs),
(560,0,ls),
(615,0,o),
(636,35,o),
(636,344,cs),
(636,759,o),
(609,800,o),
(559,800,cs),
(504,800,ls),
(466,800,o),
(454,786,o),
(454,766,cs),
(454,733,o),
(506,590,o),
(506,425,cs),
(506,403,o),
(501,389,o),
(492,389,cs),
(483,389,o),
(474,402,o),
(462,427,cs),
(330,697,o),
(276,800,o),
(200,800,cs),
(133,800,ls),
(71,800,o),
(48,761,o),
(48,344,cs),
(48,19,o),
(72,0,o),
(124,0,cs)
);
}
);
width = 684;
}
);
unicode = 78;
}
{
color = 5;
glyphname = O;
layers = (
{
layerId = m01;
shapes = (
{
closed = 1;
nodes = (
(392,-16,ls),
(570,-16,o),
(663,103,o),
(663,292,cs),
(663,511,o),
(540,816,o),
(344,816,cs),
(136,816,o),
(24,491,o),
(24,292,cs),
(24,103,o),
(118,-16,o),
(295,-16,cs)
);
},
{
closed = 1;
nodes = (
(234.5,157,o),
(180,209.333,o),
(180,314,cs),
(180,511.333,o),
(270.667,661,o),
(344,661,cs),
(417.333,661,o),
(507,511.333,o),
(507,314,cs),
(507,209.333,o),
(452.5,157,o),
(343.5,157,cs)
);
}
);
width = 687;
}
);
unicode = 79;
}
{
color = 5;
glyphname = P;
kernLeft = P;
kernRight = P;
layers = (
{
layerId = m01;
shapes = (
{
closed = 1;
nodes = (
(208.667,412,o),
(205,428,o),
(205,456,cs),
(205,569,o),
(205,686,o),
(330,686,cs),
(395.333,686,o),
(446,659.667,o),
(446,597,cs),
(446,533,o),
(290,412,o),
(234,412,cs)
);
},
{
closed = 1;
nodes = (
(194,0,ls),
(237,0,o),
(259,17,o),
(259,57,cs),
(259,87,o),
(225,144,o),
(225,207,cs),
(225,282,o),
(411,369,o),
(468.5,406.5,cs),
(542.5,455.167,o),
(602,533.333,o),
(602,628,cs),
(602,746,o),
(528,800,o),
(395,800,cs),
(139,800,ls),
(84,800,o),
(48,771,o),
(48,344,cs),
(48,210.667,o),
(55,118,o),
(59,73,cs),
(65,12,o),
(81,0,o),
(130,0,cs)
);
}
);
width = 602;
},
{
associatedMasterId = m01;
layerId = "83B043DC-EBF0-47A8-A2AE-5FC0CA83765F";
name = "Jun 18, 23 at 20:06";
shapes = (
{
closed = 1;
nodes = (
(208.667,412,o),
(205,428,o),
(205,456,cs),
(205,569,o),
(205,686,o),
(330,686,cs),
(395.333,686,o),
(446,659.667,o),
(446,597,cs),
(446,533,o),
(290,412,o),
(234,412,cs)
);
},
{
closed = 1;
nodes = (
(226,0,ls),
(245,0,o),
(259,17,o),
(259,33,cs),
(259,63,o),
(225,160,o),
(225,213,cs),
(225,282,o),
(411,369,o),
(468.5,406.5,cs),
(542.5,455.167,o),
(602,533.333,o),
(602,628,cs),
(602,714,o),
(544,800,o),
(411,800,cs),
(115,800,ls),
(84,800,o),
(48,739,o),
(48,344,cs),
(48,210.667,o),
(53.667,118.333,o),
(59,73,cs),
(62,44,o),
(65,0,o),
(98,0,cs)
);
}
);
visible = 1;
width = 602;
}
);
unicode = 80;
}
{
color = 5;
glyphname = Q;
kernLeft = Q;
kernRight = Q;
layers = (
{
layerId = m01;
shapes = (
{
closed = 1;
nodes = (
(500,-16,o),
(528,31,o),
(560,31,cs),
(574,31,o),
(585,18,o),
(593,0,cs),
(604,-24,o),
(590,-42,o),
(620,-42,cs),
(652,-42,o),
(674,-24,o),
(674,16,cs),
(674,83,o),
(639,95,o),
(639,132,cs),
(639,162,o),
(662,204,o),
(662,316,cs),
(662,552,o),
(527,821,o),
(346,816,cs),
(135,810,o),
(24,517,o),
(24,300,cs),
(24,31,o),
(172,-16,o),
(348,-16,cs)
);
},
{
closed = 1;
nodes = (
(412,664,o),
(502,523,o),
(502,354,cs),
(502,280,o),
(492,255,o),
(469,255,cs),
(444,255,o),
(424,279,o),
(396,315,cs),
(374,344,o),
(354,361,o),
(328,361,cs),
(305,361,o),
(283,341,o),
(283,309,cs),
(283,274,o),
(306,257,o),
(354,216,cs),
(365,207,o),
(384,194,o),
(384,182,cs),
(384,166,o),
(377,157,o),
(348,157,cs),
(259,157,o),
(181,184,o),
(181,323,cs),
(181,434,o),
(248,664,o),
(348,664,cs)
);
}
);
width = 698;
},
{
associatedMasterId = m01;
layerId = "EF838E7E-B2DF-4E43-BE30-4A07460E2690";
name = "Jun 18, 23 at 20:17";
shapes = (
{
closed = 1;
nodes = (
(392,-16,ls),
(570,-16,o),
(663,103,o),
(663,292,cs),
(663,511,o),
(540,816,o),
(344,816,cs),
(136,816,o),
(24,491,o),
(24,292,cs),
(24,103,o),
(118,-16,o),
(295,-16,cs)
);
},
{
closed = 1;
nodes = (
(234.5,157,o),
(180,209.333,o),
(180,314,cs),
(180,511.333,o),
(270.667,661,o),
(344,661,cs),
(417.333,661,o),
(507,511.333,o),
(507,314,cs),
(507,209.333,o),
(452.5,157,o),
(343.5,157,cs)
);
}
);
visible = 1;
width = 698;
}
);
unicode = 81;
}
{
color = 5;
glyphname = R;
layers = (
{
layerId = m01;
shapes = (
{
closed = 1;
nodes = (
(214.667,428,o),
(205,447.667,o),
(205,487,cs),
(205,626,o),
(227,686,o),
(330,686,cs),
(388.667,686,o),
(439,659,o),
(439,603,cs),
(439,528,o),
(286,428,o),
(234,428,cs)
);
},
{
closed = 1;
nodes = (
(213,0,ls),
(241,0,o),
(247,12,o),
(247,36,cs),
(247,66,o),
(211,135,o),
(211,221,cs),
(211,270,o),
(275,314,o),
(311,314,cs),
(364,314,o),
(444,137,o),
(444,45,cs),
(444,6,o),
(452,0,o),
(491,0,cs),
(588,0,ls),
(614,0,o),
(624,15,o),
(624,45,cs),
(624,129,o),
(580.833,218.833,o),
(537.5,275.5,cs),
(496.198,329.511,o),
(460,371,o),
(460,391,cs),
(460,409,o),
(506.456,437.487,o),
(544,479.5,cs),
(572,510.833,o),
(595,561.667,o),
(595,619,cs),
(595,744,o),
(499,800,o),
(371,800,cs),
(137,800,ls),
(103,800,o),
(79,778,o),
(62,661.5,cs),
(51,587,o),
(48,480.333,o),
(48,341,cs),
(48,24,o),
(65,0,o),
(101,0,cs)
);
}
);
width = 640;
}
);
unicode = 82;
}
{
color = 5;
glyphname = S;
layers = (
{
layerId = m01;
shapes = (
{
closed = 1;
nodes = (
(486,-16,o),
(592,102,o),
(592,235,cs),
(592,343,o),
(533,430,o),
(347,492,cs),
(273,517,o),
(199,545,o),
(199,607,cs),
(199,659,o),
(253,687,o),
(309,687,cs),
(403,687,o),
(431,600,o),
(471,600,cs),
(504,600,o),
(548,686,o),
(548,715,cs),
(548,767,o),
(401,816,o),
(309,816,cs),
(108,816,o),
(58,675,o),
(58,598,cs),
(58,454,o),
(164,395,o),
(292,355,cs),
(356,334,o),
(435,308,o),
(435,238,cs),
(435,180.667,o),
(375.333,147,o),
(298,147,cs),
(182,147,o),
(122,203,o),
(107,311,cs),
(104,332,o),
(94,343,o),
(79,343,cs),
(55,343,o),
(32,276.524,o),
(32,212,cs),
(32,68,o),
(158.667,-16,o),
(308,-16,cs)
);
}
);
width = 624;
}
);
unicode = 83;
}
{
color = 5;
glyphname = T;
kernLeft = T_LEFT;
kernRight = T_RIGHT;
layers = (
{
layerId = m01;
shapes = (
{
closed = 1;
nodes = (
(358,0,ls),
(391,0,o),
(405,11,o),
(405,40,cs),
(405,69,o),
(352,193,o),
(352,402,cs),
(352,582,o),
(380,675,o),
(421,675,cs),
(491.595,675,o),
(527,595,o),
(546,595,cs),
(570,595,o),
(604,691,o),
(604,730,cs),
(604,793,o),
(465,816,o),
(311,816,cs),
(250,816,o),
(82,800,o),
(41,763,cs),
(19,743,o),
(0,632,o),
(0,601,cs),
(0,584,o),
(14,564,o),
(27,564,cs),
(73,564,o),
(141.048,675,o),
(219,675,cs),
(231.144,675,o),
(241,669,o),
(241,644,cs),
(241,613,o),
(196,433,o),
(196,241,cs),
(196,29,o),
(217,0,o),
(257,0,cs)
);
}
);
width = 604;
}
);
unicode = 84;
}
{
color = 5;
glyphname = U;
layers = (
{
layerId = m01;
shapes = (
{
closed = 1;
nodes = (
(520,-14,o),
(618,137.333,o),
(618,440,cs),
(618,737,o),
(587,800,o),
(552,800,cs),
(478,800,ls),
(448,800,o),
(433,779,o),
(433,755,cs),
(433,725,o),
(477,529,o),
(477,434,cs),
(477,305,o),
(455,157,o),
(324,157,cs),
(218,157,o),
(188,338,o),
(188,444,cs),
(188,574.667,o),
(236,727,o),
(236,759,cs),
(236,784,o),
(216,800,o),
(191,800,cs),
(109,800,ls),
(73,800,o),
(32,769,o),
(32,414,cs),
(32,131.333,o),
(138.667,-14,o),
(324,-14,cs)
);
}
);
width = 650;
}
);
unicode = 85;
}
{
color = 5;
glyphname = V;
layers = (
{
layerId = m01;
shapes = (
{
closed = 1;
nodes = (
(419,-23,o),
(605,313,o),
(605,549,cs),
(605,722,o),
(579,800,o),
(537,800,cs),
(429,800,ls),
(412,800,o),
(400,791,o),
(400,772,cs),
(400,751,o),
(464,689,o),
(464,501,cs),
(464,385,o),
(389,186,o),
(309,186,cs),
(254,186,o),
(173,382,o),
(173,501,cs),
(173,621,o),
(224,725,o),
(224,760,cs),
(224,783,o),
(209,800,o),
(179,800,cs),
(69,800,ls),
(49,800,o),
(37.926,786.235,o),
(29.5,751,cs),
(22.167,720.333,o),
(16,656,o),
(16,568,cs),
(16,257,o),
(200,-23,o),
(309,-23,cs)
);
}
);
width = 621;
}
);
unicode = 86;
}
{
color = 5;
glyphname = W;
layers = (
{
layerId = m01;
shapes = (
{
closed = 1;
nodes = (
(276,-16,o),
(298,70,o),
(324,141,cs),
(342,190,o),
(363,232,o),
(396.5,232,cs),
(429,232,o),
(450,193,o),
(468,146,cs),
(495,74,o),
(517,-16,o),
(569,-16,cs),
(685,-16,o),
(807,294,o),
(807,642,cs),
(807,783,o),
(795,800,o),
(753,800,cs),
(664,800,ls),
(651,800,o),
(644,795,o),
(644,785,cs),
(644,767,o),
(677,669.555,o),
(677,568,cs),
(677,492,o),
(664.5,417.667,o),
(639.5,345,cs),
(614.5,272.333,o),
(592,236,o),
(572,236,cs),
(554,236,o),
(535,277,o),
(520,338,cs),
(501,410,o),
(488,511,o),
(488,606,cs),
(488,686.847,o),
(507,762,o),
(507,783,cs),
(507,794,o),
(499,800,o),
(483,800,cs),
(357,800,ls),
(346,800,o),
(341,796,o),
(341,787,cs),
(341,770,o),
(358,691.941,o),
(358,603,cs),
(358,463,o),
(323.333,332.833,o),
(290,277.5,cs),
(273.333,249.833,o),
(259.667,236,o),
(249,236,cs),
(238,236,o),
(227,251,o),
(216,278,cs),
(182,360,o),
(169,489,o),
(169,585,cs),
(169,679.557,o),
(197,765,o),
(197,786,cs),
(197,795,o),
(190,800,o),
(175,800,cs),
(55,800,ls),
(36,800,o),
(16,777,o),
(16,553,cs),
(16,314,o),
(120,-16,o),
(224,-16,cs)
);
}
);
width = 823;
}
);
unicode = 87;
}
{
color = 5;
glyphname = X;
layers = (
{
layerId = m01;
shapes = (
{
closed = 1;
nodes = (
(135,0,ls),
(167,0,o),
(175,10,o),
(180,51,cs),
(193,158,o),
(240,304,o),
(306,305,cs),
(363,305,o),
(401,152,o),
(410,33,cs),
(412,8,o),
(427,0,o),
(456,0,cs),
(552,0,ls),
(581,0,o),
(590,6,o),
(590,29,cs),
(590,137,o),
(551.333,241.333,o),
(507,307,cs),
(477.86,348.92,o),
(439,392.412,o),
(439,417.5,cs),
(439,450.01,o),
(488.759,487.05,o),
(522.5,544.5,cs),
(547.167,586.5,o),
(568,656.333,o),
(568,743,cs),
(568,787.31,o),
(566.435,800,o),
(525,800,cs),
(450,800,ls),
(418,800,o),
(410,795,o),
(410,770,cs),
(410,673,o),
(401,621,o),
(386,582,cs),
(371,543,o),
(352,512,o),
(334,512,cs),
(319.549,512,o),
(296.117,538.394,o),
(275.5,586.5,cs),
(261.5,619.167,o),
(248,673,o),
(243,749,cs),
(240,792,o),
(226,800,o),
(208,800,cs),
(94,800,ls),
(72,800,o),
(64,788,o),
(64,770,cs),
(64,682,o),
(88,611,o),
(117,565,cs),
(132,542,o),
(213,438,o),
(213,418,cs),
(213,383.968,o),
(141.311,325.068,o),
(118,290,cs),
(53.667,195.167,o),
(24,108.667,o),
(24,33,cs),
(24,4,o),
(31,0,o),
(55,0,cs)
);
}
);
width = 614;
}
);
unicode = 88;
}
{
color = 5;
glyphname = Y;
layers = (
{
layerId = m01;
shapes = (
{
closed = 1;
nodes = (
(314,0,ls),
(348,0,o),
(358,10,o),
(358,26,cs),
(358,43,o),
(352,65,o),
(352,80,cs),
(352,176,o),
(375,241,o),
(419,323,cs),
(486,448,o),
(607,544,o),
(607,749,cs),
(607,788,o),
(598,800,o),
(561,800,cs),
(488,800,ls),
(461,800,o),
(450,792,o),
(450,775,cs),
(450,759,o),
(458,729,o),
(458,704,cs),
(458,633,o),
(412,538,o),
(368,482,cs),
(346,454,o),
(336,440,o),
(320,440,cs),
(293,440,o),
(260,491,o),
(247,521,cs),
(212,602,o),
(197,642,o),
(197,680,cs),
(197,717,o),
(206,746,o),
(206,767,cs),
(206,790,o),
(190,800,o),
(167,800,cs),
(73,800,ls),
(26,800,o),
(16,795,o),
(16,727,cs),
(16,559,o),
(107,442,o),
(214,322,cs),
(229,305,o),
(236,294,o),
(236,289,cs),
(236,273,o),
(219,249,o),
(199,193,cs),
(179,138,o),
(172,89,o),
(172,56,cs),
(172,19,o),
(182,0,o),
(202,0,cs)
);
}
);
width = 623;
}
);
unicode = 89;
}
{
color = 5;
glyphname = Z;
layers = (
{
layerId = m01;
shapes = (
{
closed = 1;
nodes = (
(517,0,ls),
(546.333,0,o),
(561,4.667,o),
(561,14,cs),
(561,26,o),
(506,188,o),
(490,188,cs),
(479,188,o),
(462,181,o),
(435,159,cs),
(414,142,o),
(373,124,o),
(326,124,cs),
(278,124,o),
(233,143,o),
(233,182,cs),
(233,237,o),
(321.167,368.667,o),
(408.5,478,cs),
(495.833,587.333,o),
(584,717,o),
(584,769,cs),
(584,789,o),
(570,800,o),
(546,800,cs),
(102,800,ls),
(83,800,o),
(64,790,o),
(64,774,cs),
(64,755,o),
(109,631,o),
(129,631,cs),
(146.621,631,o),
(179,686,o),
(273,686,cs),
(313,686,o),
(333,672,o),
(333,645,cs),
(333,604,o),
(213.404,464.052,o),
(128.5,333.5,cs),
(66.5,238.167,o),
(16,123.667,o),
(16,41,cs),
(16,8,o),
(36,0,o),
(81,0,cs)
);
}
);
width = 600;
}
);
unicode = 90;
}
{
glyphname = a;
layers = (
{
layerId = m01;
shapes = (
{
closed = 1;
nodes = (
(212,173,l),
(424,173,l),
(424,500,l),
(212,500,l)
);
}
);
width = 600;
}
);
unicode = 97;
}
